# xmcd
#
# Track frame offsets:
#	180
#	14568
#	31369
#	47940
#	61538
#	77861
#	90871
#	106835
#	122546
#	136547
#	153160
#	169626
#	183123
#	199469
#	212599
#	228494
#
# Disc length: 3259 seconds
#
# Revision: 1
# Processed by: cddbd v1.5.2PL0 Copyright (c) Steve Scherf et al.
# Submitted via: audiograbber 1.83.01
#
DISCID=bf0cb910
DTITLE=Karaoke Dixie Chicks - You Sing Hits of the Dixie Chicks
DYEAR=1900
DGENRE=Country
TTITLE0=Dixie Chicks - I Can Love You Better 
TTITLE1=Dixie Chicks - Wide Open Spaces
TTITLE2=Dixie Chicks - Loving Arms
TTITLE3=Dixie Chicks - There's Your Trouble
TTITLE4=Dixie Chicks - You Were Mine
TTITLE5=Dixie Chicks - Let 'Er Rip
TTITLE6=Dixie Chicks - Tonight the Heartache's On Me
TTITLE7=Dixie Chicks - Once You've Loved Somebody
TTITLE8=Dixie Chicks - I Can Love You Better-Vocal 
TTITLE9=Dixie Chicks - Wide Open Spaces-Vocal
TTITLE10=Dixie Chicks - Loving Arms-Vocal
TTITLE11=Dixie Chicks - There's Your Trouble-Vocal
TTITLE12=Dixie Chicks - You Were Mine-Vocal
TTITLE13=Dixie Chicks - Let 'Er Rip-Vocal
TTITLE14=Dixie Chicks - Tonight the Heartache's On Me-Vocal
TTITLE15=Dixie Chicks - Once You've Loved Somebody-Vocal
EXTD=
EXTT0=
EXTT1=
EXTT2=
EXTT3=
EXTT4=
EXTT5=
EXTT6=
EXTT7=
EXTT8=
EXTT9=
EXTT10=
EXTT11=
EXTT12=
EXTT13=
EXTT14=
EXTT15=
PLAYORDER=
